<?xml version="1.0" encoding="UTF-8" standalone="no"?>
<!-- Created with Inkscape (http://www.inkscape.org/) -->

<svg
   xmlns:dc="http://purl.org/dc/elements/1.1/"
   xmlns:cc="http://creativecommons.org/ns#"
   xmlns:rdf="http://www.w3.org/1999/02/22-rdf-syntax-ns#"
   xmlns:svg="http://www.w3.org/2000/svg"
   xmlns="http://www.w3.org/2000/svg"
   xmlns:sodipodi="http://sodipodi.sourceforge.net/DTD/sodipodi-0.dtd"
   xmlns:inkscape="http://www.inkscape.org/namespaces/inkscape"
   width="15.177382mm"
   height="15.153405mm"
   viewBox="0 0 15.177382 15.153405"
   version="1.1"
   id="svg8"
   inkscape:version="0.92+devel unknown"
   sodipodi:docname="iconQuote.svg">
  <defs
     id="defs2" />
  <sodipodi:namedview
     id="base"
     pagecolor="#ffffff"
     bordercolor="#666666"
     borderopacity="1.0"
     inkscape:pageopacity="0.0"
     inkscape:pageshadow="2"
     inkscape:zoom="0.35"
     inkscape:cx="-217.77602"
     inkscape:cy="-142.07005"
     inkscape:document-units="mm"
     inkscape:current-layer="layer1"
     showgrid="false"
     inkscape:window-width="1280"
     inkscape:window-height="746"
     inkscape:window-x="0"
     inkscape:window-y="0"
     inkscape:window-maximized="1" />
  <metadata
     id="metadata5">
    <rdf:RDF>
      <cc:Work
         rdf:about="">
        <dc:format>image/svg+xml</dc:format>
        <dc:type
           rdf:resource="http://purl.org/dc/dcmitype/StillImage" />
        <dc:title></dc:title>
      </cc:Work>
    </rdf:RDF>
  </metadata>
  <g
     inkscape:label="Layer 1"
     inkscape:groupmode="layer"
     id="layer1"
     transform="translate(-163.45324,-96.09056)">
    <g
       id="g4416"
       transform="translate(83.89039,-24.212185)">
      <path
         style="fill:#f3f3f3;stroke-width:0.26458332"
         d="m 83.715155,134.85138 c -1.485059,-0.76709 -2.717473,-1.99695 -3.463209,-3.45605 -0.918797,-1.79771 -0.918797,-5.23134 0,-7.02905 0.760674,-1.48832 1.996136,-2.70609 3.518814,-3.46841 1.584951,-0.7935 5.183005,-0.7935 6.767956,0 1.522678,0.76232 2.75814,1.98009 3.518814,3.46841 0.875418,1.71283 0.916261,5.22843 0.08015,6.8985 -0.762322,1.52268 -1.980088,2.75814 -3.468412,3.51882 -1.696165,0.8669 -5.338304,0.9024 -6.954108,0.0678 z m 2.745632,-6.8588 c 0.32085,-0.9204 0.01109,-1.83157 -0.62266,-1.83157 -0.612531,0 -0.749412,0.52957 -0.27296,1.05605 0.451768,0.4992 0.350207,1.58979 -0.14805,1.58979 -0.135715,0 -0.246754,0.12325 -0.246754,0.27389 0,0.57223 1.007891,-0.27769 1.290424,-1.08816 z m 2.910417,0 c 0.32085,-0.9204 0.01109,-1.83157 -0.62266,-1.83157 -0.612532,0 -0.749412,0.52957 -0.272961,1.05605 0.451769,0.4992 0.350207,1.58979 -0.14805,1.58979 -0.135714,0 -0.246753,0.12325 -0.246753,0.27389 0,0.57223 1.00789,-0.27769 1.290424,-1.08816 z"
         id="path4462"
         inkscape:connector-curvature="0" />
      <path
         style="fill:#e8e8e9;stroke-width:0.26458332"
         d="m 83.450571,134.53786 c -1.170121,-0.64661 -1.865752,-1.27838 -2.645833,-2.40293 l -1.058333,-1.52568 v -2.72844 -2.72845 l 1.058333,-1.52568 c 0.780081,-1.12455 1.475712,-1.75632 2.645833,-2.40293 1.416757,-0.78291 1.811175,-0.8776 3.667131,-0.88042 1.830618,-0.003 2.267674,0.0971 3.650071,0.83389 2.736291,1.45842 3.92759,3.49173 3.92759,6.70359 0,3.21185 -1.191299,5.24516 -3.92759,6.70358 -1.382397,0.73681 -1.819453,0.83666 -3.650071,0.83389 -1.855956,-0.003 -2.250374,-0.0975 -3.667131,-0.88042 z m 2.860175,-6.314 c 0.520988,-1.06593 0.281025,-2.06285 -0.496538,-2.06285 -0.59147,0 -0.804017,0.81537 -0.287846,1.10424 0.592272,0.33145 0.550624,0.7245 -0.157561,1.487 -0.566352,0.60978 -0.56957,0.63635 -0.06615,0.54622 0.294686,-0.0528 0.741384,-0.52894 1.008091,-1.07461 z m 2.910416,0 c 0.520989,-1.06593 0.281025,-2.06285 -0.496537,-2.06285 -0.59147,0 -0.804017,0.81537 -0.287846,1.10424 0.592272,0.33145 0.550624,0.7245 -0.157562,1.487 -0.566352,0.60978 -0.569569,0.63635 -0.06615,0.54622 0.294687,-0.0528 0.741385,-0.52894 1.008091,-1.07461 z"
         id="path4460"
         inkscape:connector-curvature="0" />
      <path
         style="fill:#e1e0df;stroke-width:0.26458332"
         d="m 84.11203,134.87198 c -1.534223,-0.69305 -3.052855,-2.16521 -3.859318,-3.74123 -0.864815,-1.69006 -0.9036,-4.72564 -0.08138,-6.36934 1.400534,-2.79981 3.552473,-4.19038 6.757041,-4.36633 1.983136,-0.1089 2.264624,-0.0586 3.53175,0.63106 1.810375,0.98533 3.538166,2.92871 3.96767,4.46275 0.45636,1.62995 0.228784,4.48938 -0.464117,5.8315 -0.684568,1.32597 -2.237289,2.81737 -3.689543,3.54382 -1.520054,0.76037 -4.487753,0.76411 -6.162103,0.008 z m 1.906054,-5.99899 c 0.863329,-0.99793 0.734474,-2.71198 -0.203876,-2.71198 -0.59147,0 -0.804017,0.81537 -0.287846,1.10424 0.58845,0.32931 0.551098,0.72538 -0.137536,1.4584 -0.443181,0.47174 -0.482977,0.61236 -0.173299,0.61236 0.221094,0 0.582244,-0.20836 0.802557,-0.46302 z m 2.910416,0 c 0.863329,-0.99793 0.734474,-2.71198 -0.203875,-2.71198 -0.59147,0 -0.804017,0.81537 -0.287846,1.10424 0.58845,0.32931 0.551098,0.72538 -0.137537,1.4584 -0.443181,0.47174 -0.482976,0.61236 -0.173298,0.61236 0.221093,0 0.582244,-0.20836 0.802556,-0.46302 z"
         id="path4458"
         inkscape:connector-curvature="0" />
      <path
         style="fill:#dddee1;stroke-width:0.26458332"
         d="m 84.84335,135.15798 c -1.961606,-0.59065 -4.067116,-2.59075 -4.829919,-4.58812 -0.684273,-1.79175 -0.460145,-4.73313 0.483327,-6.34304 2.524168,-4.30717 8.094812,-5.1989 11.779889,-1.8857 1.84716,1.66075 2.51569,3.33838 2.361093,5.925 -0.141126,2.36122 -0.74927,3.71712 -2.292545,5.11138 -1.72685,1.5601 -2.927341,2.04719 -4.981479,2.02119 -0.988063,-0.0125 -2.122228,-0.12083 -2.520366,-0.24071 z m 1.171831,-6.28499 c 0.90754,-1.05669 0.853795,-2.71198 -0.08805,-2.71198 -0.691211,0 -0.957106,0.78665 -0.402878,1.19191 0.576509,0.42156 0.555382,0.6354 -0.135422,1.37073 -0.443181,0.47174 -0.482977,0.61236 -0.173299,0.61236 0.221094,0 0.580938,-0.20836 0.799654,-0.46302 z m 2.910417,0 c 0.90754,-1.05669 0.853794,-2.71198 -0.08805,-2.71198 -0.691211,0 -0.957106,0.78665 -0.402878,1.19191 0.576509,0.42156 0.555381,0.6354 -0.135423,1.37073 -0.443181,0.47174 -0.482976,0.61236 -0.173298,0.61236 0.221093,0 0.580937,-0.20836 0.799654,-0.46302 z"
         id="path4456"
         inkscape:connector-curvature="0" />
      <path
         style="fill:#d8d8d9;stroke-width:0.26458332"
         d="m 84.478571,134.99356 c -1.43659,-0.50949 -3.107668,-1.96807 -4.006427,-3.49695 -0.646056,-1.09901 -0.725739,-1.49601 -0.725739,-3.6158 0,-2.1198 0.07968,-2.5168 0.725739,-3.61581 2.555445,-4.34708 8.103605,-5.25131 11.804503,-1.92388 1.84716,1.66075 2.51569,3.33838 2.361093,5.925 -0.07839,1.31161 -0.309182,2.36498 -0.673133,3.07232 -0.704561,1.3693 -2.41169,2.91609 -3.942642,3.57234 -1.425815,0.61117 -3.947323,0.64883 -5.543394,0.0828 z m 1.53661,-6.12057 c 0.90754,-1.05669 0.853795,-2.71198 -0.08805,-2.71198 -0.691211,0 -0.957106,0.78665 -0.402878,1.19191 0.576509,0.42156 0.555382,0.6354 -0.135422,1.37073 -0.443181,0.47174 -0.482977,0.61236 -0.173299,0.61236 0.221094,0 0.580938,-0.20836 0.799654,-0.46302 z m 2.910417,0 c 0.90754,-1.05669 0.853794,-2.71198 -0.08805,-2.71198 -0.691211,0 -0.957106,0.78665 -0.402878,1.19191 0.576509,0.42156 0.555381,0.6354 -0.135423,1.37073 -0.443181,0.47174 -0.482976,0.61236 -0.173298,0.61236 0.221093,0 0.580937,-0.20836 0.799654,-0.46302 z"
         id="path4454"
         inkscape:connector-curvature="0" />
      <path
         style="fill:#c4c6c8;stroke-width:0.26458332"
         d="m 84.773488,135.08339 c -3.349155,-1.36982 -5.159375,-3.89692 -5.159375,-7.20258 0,-3.05118 1.671021,-5.58924 4.522324,-6.86883 1.414467,-0.63477 1.885331,-0.71972 3.388841,-0.61135 2.867736,0.20671 5.258974,1.75632 6.543588,4.24049 0.661884,1.27994 0.784123,4.08378 0.248362,5.69681 -0.563738,1.69725 -2.09823,3.448 -3.755512,4.28477 -1.494473,0.75457 -4.487309,0.99277 -5.788228,0.46069 z m 1.250615,-6.2104 c 0.928154,-1.05698 0.875597,-2.71198 -0.08612,-2.71198 -0.700021,0 -0.972043,0.78366 -0.413732,1.19191 0.576509,0.42156 0.555382,0.6354 -0.135422,1.37073 -0.443181,0.47174 -0.482977,0.61236 -0.173299,0.61236 0.221094,0 0.584953,-0.20836 0.808576,-0.46302 z m 2.910416,0 c 0.928155,-1.05698 0.875598,-2.71198 -0.08612,-2.71198 -0.70002,0 -0.972042,0.78366 -0.413731,1.19191 0.576509,0.42156 0.555381,0.6354 -0.135423,1.37073 -0.443181,0.47174 -0.482976,0.61236 -0.173298,0.61236 0.221093,0 0.584952,-0.20836 0.808575,-0.46302 z"
         id="path4452"
         inkscape:connector-curvature="0" />
      <path
         style="fill:#b8bcc0;stroke-width:0.26458332"
         d="m 84.827113,135.05601 c -2.475308,-0.92287 -4.330458,-2.90259 -4.984356,-5.31905 -0.654729,-2.41953 0.389535,-5.88828 2.241898,-7.44694 1.653121,-1.39101 2.819543,-1.8081 5.070083,-1.81297 1.856756,-0.004 2.290768,0.0918 3.534516,0.78074 2.802054,1.55201 4.187924,4.06992 3.940011,7.15838 -0.311691,3.88302 -3.191438,6.69748 -7.077652,6.9172 -1.065645,0.0602 -2.101947,-0.0453 -2.7245,-0.27736 z m 1.93075,-7.55461 c 0,-0.90487 -0.310087,-1.34039 -0.954349,-1.34039 -0.460023,0 -0.633151,0.14697 -0.633151,0.53747 0,0.29561 0.178594,0.60601 0.396875,0.68977 0.537634,0.20631 0.499044,0.52268 -0.141942,1.16366 -0.29635,0.29635 -0.455922,0.67295 -0.354606,0.83688 0.245587,0.39737 1.687173,-1.2153 1.687173,-1.88739 z m 2.910417,0 c 0,-0.90487 -0.310087,-1.34039 -0.95435,-1.34039 -0.460022,0 -0.63315,0.14697 -0.63315,0.53747 0,0.29561 0.178593,0.60601 0.396875,0.68977 0.537634,0.20631 0.499044,0.52268 -0.141943,1.16366 -0.296349,0.29635 -0.455921,0.67295 -0.354605,0.83688 0.245586,0.39737 1.687173,-1.2153 1.687173,-1.88739 z"
         id="path4450"
         inkscape:connector-curvature="0" />
      <path
         style="fill:#b4b6b8;stroke-width:0.26458332"
         d="m 84.827113,135.05601 c -2.475308,-0.92287 -4.330458,-2.90259 -4.984356,-5.31905 -0.654729,-2.41953 0.389535,-5.88828 2.241898,-7.44694 1.653121,-1.39101 2.819543,-1.8081 5.070083,-1.81297 1.881983,-0.004 2.278012,0.0863 3.571875,0.81531 1.694727,0.95483 3.248131,2.84298 3.717151,4.51816 0.705926,2.52131 -0.319926,6.06315 -2.218943,7.66107 -2.030404,1.70847 -5.228058,2.39334 -7.397708,1.58442 z m 1.245772,-6.26946 c 1.018792,-1.21077 0.873641,-2.62554 -0.269371,-2.62554 -0.747003,0 -0.891027,0.88773 -0.206203,1.27097 0.347037,0.19422 0.370055,0.34524 0.122983,0.8069 -0.167181,0.31238 -0.418839,0.56797 -0.55924,0.56797 -0.140401,0 -0.255274,0.17859 -0.255274,0.39687 0,0.6204 0.420527,0.47008 1.167105,-0.41717 z m 2.910416,0 c 1.018792,-1.21077 0.873642,-2.62554 -0.269371,-2.62554 -0.747002,0 -0.891027,0.88773 -0.206202,1.27097 0.347036,0.19422 0.370055,0.34524 0.122983,0.8069 -0.167182,0.31238 -0.41884,0.56797 -0.55924,0.56797 -0.140401,0 -0.255275,0.17859 -0.255275,0.39687 0,0.6204 0.420527,0.47008 1.167105,-0.41717 z"
         id="path4448"
         inkscape:connector-curvature="0" />
      <path
         style="fill:#adb1b4;stroke-width:0.26458332"
         d="m 84.402161,134.84484 c -2.727217,-1.0473 -4.788048,-4.0447 -4.788048,-6.96403 0,-1.73415 0.921169,-3.91135 2.220553,-5.24832 3.630981,-3.736 9.746281,-2.68073 12.093361,2.08687 0.759326,1.54241 0.826362,1.87502 0.708868,3.51716 -0.228989,3.20043 -1.968215,5.55879 -4.912395,6.66112 -1.771805,0.66338 -3.502082,0.64621 -5.322339,-0.0528 z m 1.670724,-6.05829 c 1.018792,-1.21077 0.873641,-2.62554 -0.269371,-2.62554 -0.747003,0 -0.891027,0.88773 -0.206203,1.27097 0.347037,0.19422 0.370055,0.34524 0.122983,0.8069 -0.167181,0.31238 -0.418839,0.56797 -0.55924,0.56797 -0.140401,0 -0.255274,0.17859 -0.255274,0.39687 0,0.6204 0.420527,0.47008 1.167105,-0.41717 z m 2.910416,0 c 1.018792,-1.21077 0.873642,-2.62554 -0.269371,-2.62554 -0.747002,0 -0.891027,0.88773 -0.206202,1.27097 0.347036,0.19422 0.370055,0.34524 0.122983,0.8069 -0.167182,0.31238 -0.41884,0.56797 -0.55924,0.56797 -0.140401,0 -0.255275,0.17859 -0.255275,0.39687 0,0.6204 0.420527,0.47008 1.167105,-0.41717 z"
         id="path4446"
         inkscape:connector-curvature="0" />
      <path
         style="fill:#a4a6a8;stroke-width:0.26458332"
         d="m 84.446583,134.86141 c -2.717597,-1.04456 -4.83247,-4.09954 -4.83247,-6.9806 0,-2.72219 1.927882,-5.67755 4.456554,-6.83171 2.674775,-1.22084 6.245909,-0.57215 8.331451,1.51339 1.610707,1.61071 2.148591,2.90853 2.149347,5.18602 7.94e-4,2.41509 -0.623523,3.95942 -2.231554,5.51996 -2.082153,2.02066 -5.147203,2.64078 -7.873328,1.59294 z m 1.626302,-6.07486 c 0.799518,-0.95018 0.909338,-2.22694 0.221957,-2.58048 -0.254661,-0.13097 -0.611849,-0.18477 -0.79375,-0.11955 -0.472676,0.16949 -0.408788,1.06285 0.09622,1.34546 0.347037,0.19422 0.370055,0.34524 0.122983,0.8069 -0.167181,0.31238 -0.418839,0.56797 -0.55924,0.56797 -0.140401,0 -0.255274,0.17859 -0.255274,0.39687 0,0.6204 0.420527,0.47008 1.167105,-0.41717 z m 2.910416,0 c 0.799518,-0.95018 0.909338,-2.22694 0.221958,-2.58048 -0.254662,-0.13097 -0.611849,-0.18477 -0.79375,-0.11955 -0.472676,0.16949 -0.408788,1.06285 0.09622,1.34546 0.347036,0.19422 0.370055,0.34524 0.122983,0.8069 -0.167182,0.31238 -0.41884,0.56797 -0.55924,0.56797 -0.140401,0 -0.255275,0.17859 -0.255275,0.39687 0,0.6204 0.420527,0.47008 1.167105,-0.41717 z"
         id="path4444"
         inkscape:connector-curvature="0" />
      <path
         style="fill:#9da1a6;stroke-width:0.26458332"
         d="m 84.951636,135.04466 c -2.622498,-0.85479 -4.552392,-3.03221 -5.130549,-5.78859 -1.060165,-5.05437 3.801995,-9.82005 8.863264,-8.68739 2.645163,0.59196 5.088816,2.89118 5.776433,5.43501 0.630465,2.33239 -0.255874,5.39264 -2.094348,7.23111 -1.810336,1.81034 -5.014131,2.59234 -7.4148,1.80986 z m 1.157402,-6.14416 c 1.084442,-1.17013 0.702112,-3.3125 -0.508265,-2.84804 -0.55397,0.21258 -0.556123,1.07024 -0.0035,1.37952 0.347036,0.19422 0.370055,0.34524 0.122983,0.8069 -0.16718,0.31238 -0.418838,0.56797 -0.559239,0.56797 -0.140401,0 -0.255274,0.17859 -0.255274,0.39687 0,0.59896 0.479018,0.47825 1.203258,-0.30322 z m 2.910417,0 c 1.084442,-1.17013 0.702111,-3.3125 -0.508265,-2.84804 -0.553971,0.21258 -0.556123,1.07024 -0.0035,1.37952 0.347037,0.19422 0.370055,0.34524 0.122983,0.8069 -0.167183,0.31238 -0.418841,0.56797 -0.559241,0.56797 -0.140401,0 -0.255275,0.17859 -0.255275,0.39687 0,0.59896 0.479019,0.47825 1.203259,-0.30322 z"
         id="path4442"
         inkscape:connector-curvature="0" />
      <path
         style="fill:#999da2;stroke-width:0.26458332"
         d="m 85.019746,135.06477 c -4.393455,-1.44055 -6.52732,-6.22494 -4.602601,-10.31961 1.260447,-2.68148 3.768329,-4.27139 6.737593,-4.27139 2.22727,0 3.751855,0.65269 5.390516,2.30773 4.400832,4.44483 1.390874,12.09367 -4.931276,12.53125 -0.85083,0.0589 -1.990601,-0.0501 -2.594232,-0.24798 z m 1.089292,-6.16427 c 1.084442,-1.17013 0.702112,-3.3125 -0.508265,-2.84804 -0.55397,0.21258 -0.556123,1.07024 -0.0035,1.37952 0.347036,0.19422 0.370055,0.34524 0.122983,0.8069 -0.16718,0.31238 -0.418838,0.56797 -0.559239,0.56797 -0.140401,0 -0.255274,0.17859 -0.255274,0.39687 0,0.59896 0.479018,0.47825 1.203258,-0.30322 z m 2.910417,0 c 1.084442,-1.17013 0.702111,-3.3125 -0.508265,-2.84804 -0.553971,0.21258 -0.556123,1.07024 -0.0035,1.37952 0.347037,0.19422 0.370055,0.34524 0.122983,0.8069 -0.167183,0.31238 -0.418841,0.56797 -0.559241,0.56797 -0.140401,0 -0.255275,0.17859 -0.255275,0.39687 0,0.59896 0.479019,0.47825 1.203259,-0.30322 z"
         id="path4440"
         inkscape:connector-curvature="0" />
      <path
         style="fill:#93979b;stroke-width:0.26458332"
         d="m 84.997317,135.04227 c -2.289662,-0.71615 -4.137995,-2.57695 -4.954466,-4.9879 -0.910765,-2.68939 -0.263143,-5.13826 1.942025,-7.34343 3.062632,-3.06263 6.99417,-3.13521 10.218187,-0.18864 2.270334,2.07495 2.990959,4.70264 2.055232,7.49418 -1.358278,4.05215 -5.385823,6.23783 -9.260978,5.02579 z m 1.111721,-6.14177 c 1.084442,-1.17013 0.702112,-3.3125 -0.508265,-2.84804 -0.55397,0.21258 -0.556123,1.07024 -0.0035,1.37952 0.347036,0.19422 0.370055,0.34524 0.122983,0.8069 -0.16718,0.31238 -0.418838,0.56797 -0.559239,0.56797 -0.140401,0 -0.255274,0.17859 -0.255274,0.39687 0,0.59896 0.479018,0.47825 1.203258,-0.30322 z m 2.910417,0 c 1.084442,-1.17013 0.702111,-3.3125 -0.508265,-2.84804 -0.553971,0.21258 -0.556123,1.07024 -0.0035,1.37952 0.347037,0.19422 0.370055,0.34524 0.122983,0.8069 -0.167183,0.31238 -0.418841,0.56797 -0.559241,0.56797 -0.140401,0 -0.255275,0.17859 -0.255275,0.39687 0,0.59896 0.479019,0.47825 1.203259,-0.30322 z"
         id="path4438"
         inkscape:connector-curvature="0" />
      <path
         style="fill:#888c93;stroke-width:0.26458332"
         d="m 84.773488,134.94895 c -1.862092,-0.61909 -3.862843,-2.63471 -4.596512,-4.63067 -0.708078,-1.92634 -0.708446,-2.95456 -0.0017,-4.84341 2.036696,-5.44356 8.673993,-6.72817 12.540918,-2.42722 1.221421,1.35852 1.979204,3.22358 1.979204,4.87125 0,2.77365 -2.53187,6.16744 -5.255904,7.04516 -1.742669,0.56152 -2.943293,0.55763 -4.665971,-0.0151 z m 1.33555,-6.04845 c 1.084442,-1.17013 0.702112,-3.3125 -0.508265,-2.84804 -0.55397,0.21258 -0.556123,1.07024 -0.0035,1.37952 0.347036,0.19422 0.370055,0.34524 0.122983,0.8069 -0.16718,0.31238 -0.418838,0.56797 -0.559239,0.56797 -0.140401,0 -0.255274,0.17859 -0.255274,0.39687 0,0.59896 0.479018,0.47825 1.203258,-0.30322 z m 2.910417,0 c 1.084442,-1.17013 0.702111,-3.3125 -0.508265,-2.84804 -0.553971,0.21258 -0.556123,1.07024 -0.0035,1.37952 0.347037,0.19422 0.370055,0.34524 0.122983,0.8069 -0.167183,0.31238 -0.418841,0.56797 -0.559241,0.56797 -0.140401,0 -0.255275,0.17859 -0.255275,0.39687 0,0.59896 0.479019,0.47825 1.203259,-0.30322 z"
         id="path4436"
         inkscape:connector-curvature="0" />
      <path
         style="fill:#7c8087;stroke-width:0.26458332"
         d="m 85.302655,135.06621 c -3.502654,-1.15701 -5.537012,-3.79978 -5.531206,-7.1854 0.01142,-6.66148 8.266983,-9.92205 12.765454,-5.04178 2.118914,2.29875 2.602518,5.14848 1.362767,8.03036 -1.382172,3.21294 -5.495956,5.22118 -8.597015,4.19682 z m 0.821526,-6.13079 c 0.513339,-0.51334 0.646487,-0.88471 0.583286,-1.62685 -0.106172,-1.24674 -0.861959,-1.78242 -1.432431,-1.01526 -0.356003,0.47873 -0.341861,0.57107 0.148401,0.96894 0.571845,0.46409 0.503228,1.13624 -0.14124,1.38354 -0.432672,0.16604 -0.515124,0.95481 -0.09981,0.95481 0.152135,0 0.575941,-0.29933 0.941791,-0.66518 z m 2.910417,0 c 0.513339,-0.51334 0.646487,-0.88471 0.583285,-1.62685 -0.106171,-1.24674 -0.861958,-1.78242 -1.43243,-1.01526 -0.356003,0.47873 -0.341861,0.57107 0.148401,0.96894 0.571845,0.46409 0.503227,1.13624 -0.14124,1.38354 -0.432672,0.16604 -0.515124,0.95481 -0.09981,0.95481 0.152136,0 0.575942,-0.29933 0.941792,-0.66518 z"
         id="path4434"
         inkscape:connector-curvature="0" />
      <path
         style="fill:#767c84;stroke-width:0.26458332"
         d="m 84.944963,134.93029 c -0.778813,-0.27727 -1.731313,-0.73774 -2.116666,-1.02327 -1.972887,-1.46179 -3.436437,-4.66239 -3.098464,-6.77596 1.215381,-7.60057 11.080941,-9.10027 14.213708,-2.16067 2.546516,5.64095 -3.215673,12.01872 -8.998578,9.9599 z m 1.179218,-5.99487 c 0.513339,-0.51334 0.646487,-0.88471 0.583286,-1.62685 -0.1006,-1.18131 -0.796943,-1.73653 -1.40957,-1.1239 -0.46484,0.46484 -0.285659,1.22784 0.317111,1.35034 0.329727,0.067 0.30266,0.20415 -0.15482,0.7844 -1.025471,1.30067 -0.504236,1.78423 0.663993,0.61601 z m 2.910417,0 c 0.513339,-0.51334 0.646487,-0.88471 0.583285,-1.62685 -0.100599,-1.18131 -0.796942,-1.73653 -1.409569,-1.1239 -0.464841,0.46484 -0.285659,1.22784 0.31711,1.35034 0.329728,0.067 0.30266,0.20415 -0.154819,0.7844 -1.025471,1.30067 -0.504236,1.78423 0.663993,0.61601 z"
         id="path4432"
         inkscape:connector-curvature="0" />
      <path
         style="fill:#72777d;stroke-width:0.26458332"
         d="m 84.944963,134.93029 c -0.778813,-0.27727 -1.731313,-0.73774 -2.116666,-1.02327 -1.972887,-1.46179 -3.436437,-4.66239 -3.098464,-6.77596 0.61789,-3.86407 3.710624,-6.62717 7.424905,-6.63354 3.700338,-0.006 6.854028,2.80094 7.42517,6.60958 0.18224,1.21527 -0.359985,3.37194 -1.181436,4.6991 -1.768147,2.85669 -5.416974,4.20515 -8.453509,3.12409 z m 1.179218,-5.99487 c 0.513339,-0.51334 0.646487,-0.88471 0.583286,-1.62685 -0.1006,-1.18131 -0.796943,-1.73653 -1.40957,-1.1239 -0.46484,0.46484 -0.285659,1.22784 0.317111,1.35034 0.329727,0.067 0.30266,0.20415 -0.15482,0.7844 -1.025471,1.30067 -0.504236,1.78423 0.663993,0.61601 z m 2.910417,0 c 0.513339,-0.51334 0.646487,-0.88471 0.583285,-1.62685 -0.100599,-1.18131 -0.796942,-1.73653 -1.409569,-1.1239 -0.464841,0.46484 -0.285659,1.22784 0.31711,1.35034 0.329728,0.067 0.30266,0.20415 -0.154819,0.7844 -1.025471,1.30067 -0.504236,1.78423 0.663993,0.61601 z"
         id="path4430"
         inkscape:connector-curvature="0" />
      <path
         style="fill:#6d727a;stroke-width:0.26458332"
         d="m 85.629274,135.13355 c -3.984969,-0.93885 -6.561973,-4.84662 -5.709162,-8.65738 0.893374,-3.99201 4.832856,-6.67386 8.61274,-5.86322 2.775942,0.59533 4.984258,2.68877 5.801387,5.49959 1.054426,3.6271 -1.395993,7.75928 -5.286446,8.91462 -1.46911,0.43628 -1.954204,0.45138 -3.418519,0.10639 z m 0.494907,-6.19813 c 0.513339,-0.51334 0.646487,-0.88471 0.583286,-1.62685 -0.1006,-1.18131 -0.796943,-1.73653 -1.40957,-1.1239 -0.46484,0.46484 -0.285659,1.22784 0.317111,1.35034 0.329727,0.067 0.30266,0.20415 -0.15482,0.7844 -1.025471,1.30067 -0.504236,1.78423 0.663993,0.61601 z m 2.910417,0 c 0.513339,-0.51334 0.646487,-0.88471 0.583285,-1.62685 -0.100599,-1.18131 -0.796942,-1.73653 -1.409569,-1.1239 -0.464841,0.46484 -0.285659,1.22784 0.31711,1.35034 0.329728,0.067 0.30266,0.20415 -0.154819,0.7844 -1.025471,1.30067 -0.504236,1.78423 0.663993,0.61601 z"
         id="path4428"
         inkscape:connector-curvature="0" />
      <path
         style="fill:#646a72;stroke-width:0.26458332"
         d="m 85.349753,135.03498 c -2.762161,-0.78415 -4.558534,-2.64774 -5.34192,-5.5418 -0.447814,-1.65436 -0.445439,-1.74383 0.09307,-3.5071 0.898136,-2.94081 2.761873,-4.67789 5.760855,-5.36938 1.105176,-0.25482 1.630495,-0.23943 2.869336,0.0841 2.875606,0.75092 4.748162,2.56637 5.587503,5.4171 0.412494,1.40099 0.412158,1.61008 -0.0052,3.21813 -0.245476,0.94589 -0.73851,2.1672 -1.095632,2.71402 -1.618897,2.47885 -5.056699,3.78307 -7.868052,2.98495 z m 0.872609,-6.14788 c 1.042869,-1.3258 0.19052,-3.81741 -0.924465,-2.70243 -0.46484,0.46484 -0.285659,1.22784 0.317111,1.35034 0.329727,0.067 0.30266,0.20415 -0.15482,0.7844 -0.304925,0.38676 -0.554408,0.83324 -0.554408,0.99219 0,0.53628 0.751404,0.294 1.316582,-0.4245 z m 2.910417,0 c 1.042869,-1.3258 0.190519,-3.81741 -0.924465,-2.70243 -0.464841,0.46484 -0.285659,1.22784 0.31711,1.35034 0.329728,0.067 0.30266,0.20415 -0.154819,0.7844 -0.304925,0.38676 -0.554409,0.83324 -0.554409,0.99219 0,0.53628 0.751405,0.294 1.316583,-0.4245 z"
         id="path4426"
         inkscape:connector-curvature="0" />
      <path
         style="fill:#60666e;stroke-width:0.26458332"
         d="m 85.137675,134.91702 c -2.691717,-0.86104 -4.301499,-2.57101 -5.141915,-5.46194 -0.414645,-1.42633 -0.415022,-1.63399 -0.0056,-3.10646 0.836891,-3.01013 2.622186,-4.80711 5.587389,-5.62397 1.544185,-0.4254 1.661693,-0.42112 3.503742,0.12746 1.566121,0.46642 2.14032,0.80198 3.220263,1.88192 1.074033,1.07403 1.416315,1.65687 1.872394,3.18829 0.502869,1.68854 0.523854,2.00764 0.212043,3.22426 -0.784147,3.05958 -2.765158,5.1418 -5.590476,5.8761 -1.860478,0.48353 -1.811476,0.48495 -3.6578,-0.10566 z m 1.084687,-6.02992 c 1.042869,-1.3258 0.19052,-3.81741 -0.924465,-2.70243 -0.46484,0.46484 -0.285659,1.22784 0.317111,1.35034 0.329727,0.067 0.30266,0.20415 -0.15482,0.7844 -0.304925,0.38676 -0.554408,0.83324 -0.554408,0.99219 0,0.53628 0.751404,0.294 1.316582,-0.4245 z m 2.910417,0 c 1.042869,-1.3258 0.190519,-3.81741 -0.924465,-2.70243 -0.464841,0.46484 -0.285659,1.22784 0.31711,1.35034 0.329728,0.067 0.30266,0.20415 -0.154819,0.7844 -0.304925,0.38676 -0.554409,0.83324 -0.554409,0.99219 0,0.53628 0.751405,0.294 1.316583,-0.4245 z"
         id="path4424"
         inkscape:connector-curvature="0" />
      <path
         style="fill:#5c636b;stroke-width:0.26458332"
         d="m 85.285443,134.9242 c -2.808953,-0.80437 -4.494856,-2.60729 -5.291786,-5.65907 -0.309337,-1.18458 -0.309018,-1.6024 0.0021,-2.7819 0.818149,-3.10145 2.615127,-4.9408 5.584554,-5.71623 1.406096,-0.36718 1.725504,-0.36787 3.119124,-0.007 0.853937,0.22128 1.999761,0.69823 2.546276,1.0599 1.169675,0.77405 2.552024,2.60503 2.793091,3.69957 0.09371,0.42547 0.284412,1.07735 0.423785,1.44863 0.178114,0.47447 0.134185,1.13276 -0.147849,2.21556 -0.841566,3.23099 -2.44162,4.93232 -5.413814,5.75649 -0.954118,0.26456 -1.796869,0.47255 -1.872779,0.46218 -0.07591,-0.0104 -0.860137,-0.22564 -1.742729,-0.47838 z m 0.92405,-6.02074 c 0.751211,-0.95501 0.755023,-2.6412 0.0065,-2.87877 -1.107237,-0.35142 -1.810517,1.02664 -0.728253,1.42699 l 0.581967,0.21529 -0.719315,0.71931 c -0.717168,0.71717 -0.738184,1.21432 -0.05133,1.21432 0.199131,0 0.608823,-0.31372 0.910427,-0.69714 z m 2.910417,0 c 0.751211,-0.95501 0.755022,-2.6412 0.0065,-2.87877 -1.107237,-0.35142 -1.810518,1.02664 -0.728253,1.42699 l 0.581967,0.21529 -0.719316,0.71931 c -0.717167,0.71717 -0.738183,1.21432 -0.05133,1.21432 0.199131,0 0.608823,-0.31372 0.910427,-0.69714 z"
         id="path4422"
         inkscape:connector-curvature="0" />
      <path
         style="fill:#535a63;stroke-width:0.26458332"
         d="m 85.672115,135.02175 c -1.652706,-0.45319 -2.309658,-0.81857 -3.500122,-1.94671 -1.925205,-1.8244 -2.748996,-4.30238 -2.169693,-6.52648 0.48631,-1.86706 0.966506,-2.7218 2.169693,-3.86199 1.223095,-1.15906 1.822406,-1.4822 3.612502,-1.9478 1.474101,-0.38341 3.194938,-0.11804 4.844301,0.74706 1.59604,0.83712 3.5374,3.40524 3.5374,4.67944 0,0.30783 0.129033,0.8008 0.28674,1.09548 0.193237,0.36106 0.202922,0.76521 0.0297,1.23937 -0.141372,0.38698 -0.397728,1.22124 -0.569682,1.85391 -0.343283,1.26305 -2.02016,3.27372 -3.268703,3.91937 -0.661228,0.34193 -3.545456,1.21105 -3.700859,1.11519 -0.02928,-0.0181 -0.601354,-0.18313 -1.271276,-0.36684 z m 0.537378,-6.11829 c 0.751211,-0.95501 0.755023,-2.6412 0.0065,-2.87877 -1.107237,-0.35142 -1.810517,1.02664 -0.728253,1.42699 l 0.581967,0.21529 -0.719315,0.71931 c -0.717168,0.71717 -0.738184,1.21432 -0.05133,1.21432 0.199131,0 0.608823,-0.31372 0.910427,-0.69714 z m 2.910417,0 c 0.751211,-0.95501 0.755022,-2.6412 0.0065,-2.87877 -1.107237,-0.35142 -1.810518,1.02664 -0.728253,1.42699 l 0.581967,0.21529 -0.719316,0.71931 c -0.717167,0.71717 -0.738183,1.21432 -0.05133,1.21432 0.199131,0 0.608823,-0.31372 0.910427,-0.69714 z"
         id="path4420"
         inkscape:connector-curvature="0" />
      <path
         style="fill:#4e555e;stroke-width:0.26458332"
         d="m 86.49328,135.12056 c -0.363802,-0.10617 -1.185385,-0.33018 -1.825739,-0.4978 -1.606491,-0.42051 -3.835773,-2.65093 -4.25258,-4.25476 -0.166418,-0.64035 -0.390428,-1.46193 -0.497801,-1.82574 -0.107374,-0.3638 -0.108355,-0.95911 -0.0022,-1.32291 0.106175,-0.36381 0.319671,-1.1503 0.474438,-1.74776 0.558641,-2.1566 3.486843,-4.60224 5.510325,-4.60224 0.45479,0 0.893964,-0.10853 0.975942,-0.24117 0.08657,-0.14008 0.45356,-0.14656 0.87551,-0.0155 0.399554,0.12415 1.250387,0.36188 1.890741,0.5283 1.605801,0.41732 3.83526,2.64678 4.252581,4.25258 0.166417,0.64035 0.40415,1.49119 0.528297,1.89074 0.131106,0.42195 0.12463,0.78894 -0.01545,0.87551 -0.132642,0.082 -0.241168,0.50051 -0.241168,0.93007 0,2.03846 -2.455987,5.00236 -4.602243,5.55402 -0.597464,0.15356 -1.383955,0.36706 -1.747757,0.47443 -0.363802,0.10738 -0.959114,0.10836 -1.322916,0.002 z m -0.283787,-6.2171 c 0.751211,-0.95501 0.755023,-2.6412 0.0065,-2.87877 -1.107237,-0.35142 -1.810517,1.02664 -0.728253,1.42699 l 0.581967,0.21529 -0.719315,0.71931 c -0.717168,0.71717 -0.738184,1.21432 -0.05133,1.21432 0.199131,0 0.608823,-0.31372 0.910427,-0.69714 z m 2.910417,0 c 0.751211,-0.95501 0.755022,-2.6412 0.0065,-2.87877 -1.107237,-0.35142 -1.810518,1.02664 -0.728253,1.42699 l 0.581967,0.21529 -0.719316,0.71931 c -0.717167,0.71717 -0.738183,1.21432 -0.05133,1.21432 0.199131,0 0.608823,-0.31372 0.910427,-0.69714 z"
         id="path4418"
         inkscape:connector-curvature="0" />
    </g>
  </g>
</svg>
